<svg version="1.2" xmlns="http://www.w3.org/2000/svg" viewBox="0 0 753 185" width="753" height="185">
	<title>New-Project-_11_-_2_-svg</title>
	<style>
		.s0 { fill: #000000 } 
		.s1 { fill: #ffbc42 } 
	</style>
	<g id="Layer">
		<path id="Layer" class="s0" d="m33.8 22c-3.1 1.7-8.8 9-8.8 11.3 0 0.4 3.6 0.7 7.9 0.7 5.9 0 8.4 0.4 9.5 1.6 2 1.9 2 2.5 0.2 5-1.2 1.6-2.9 2-11.1 2.3l-9.7 0.3 4.3 4.5c9.7 9.9 18.6 10.8 28.1 2.8 2.9-2.4 3.3-2.5 19.4-2.5 14.4 0 17 0.2 20.3 2 9.8 5 13 17.5 6.8 26.9-4.5 6.7-6.6 7.2-31.9 6.9l-22.3-0.3-0.5-6.7c-0.7-9.1-2.7-11.2-10.6-10.9-5.6 0.2-7.3 2.6-8.9 12.6-2.6 15.8-2.2 19.8 4.6 41.7 2.6 8.5 3.3 9.8 5.2 9.8 1.2 0 2.7-0.4 3.3-0.8 1.2-0.7 6.4-19.9 6.4-23.3 0-1.8 1.3-1.9 22-1.9 24 0 26.3 0.4 31.2 5.6 7.3 7.8 6 20.3-2.8 27l-3.7 2.9-18 0.3c-17.9 0.3-18 0.3-20.6-2.1-6.5-6.1-16-7.4-21.9-3-2.7 2-7.2 7.9-7.2 9.4 0 0.5 3.5 0.9 7.8 0.9 8.5 0 10.2 0.8 10.2 5 0 4.2-1.7 5-10.7 5-4.7 0-8.3 0.4-8.3 1 0 1.8 6.3 8.1 10.1 10.1 5.3 2.7 10.8 2.5 15-0.6 1.9-1.3 4.5-3.2 5.9-4.2 2-1.5 5.3-1.9 22.5-2.3 23.2-0.6 26.8-1.6 34.8-9.8 14.4-14.7 15.3-36.5 2.2-51.1l-3.7-4.1 3.7-4.1c8.6-9.5 11.4-22.3 7.6-34.5-3.6-11.9-11.3-20-23-24.5-4.8-1.9-8.2-2.3-24.1-2.6l-18.5-0.5-3.7-2.9c-6.8-5.4-12.6-6.2-19-2.9z"/>
		<path id="Layer" class="s0" d="m270.6 29.5c-17.6 4.5-33.8 17.5-41.5 33.4-5.7 11.9-7.5 20.8-6.8 34.5 0.6 13.2 3.6 23.1 9.9 32.8 21.7 33.5 69.4 38.8 99 10.9l7.3-7-7.2-7.2-7.1-7.2-5.9 5.2c-3.2 2.9-9.2 6.9-13.2 8.9-7.3 3.6-7.8 3.7-18.6 3.7-10.8 0-11.3-0.1-18.7-3.8-8.9-4.4-14.7-10.2-18.9-19.2-11-23.2-2.4-51.2 19-61.8 6.2-3 7.1-3.2 18.1-3.2 11.4 0 11.8 0.1 19.1 3.7 4 2 9.8 5.8 12.8 8.4l5.3 4.8 7.7-7.8 7.6-7.9-5.8-5.2c-7.6-6.7-14.8-11-23.9-14.2-9.3-3.2-28.8-4.1-38.2-1.8z"/>
		<path id="Layer" class="s0" d="m189 75.4c0 49.5-0.1 51-5.8 57-5 5.3-12.1 6.9-20.6 4.5-4.3-1.2-11.4-7.3-15.8-13.7l-3-4.3-6.6 5.7c-3.7 3.2-7.3 6.3-8.1 7-1.2 1.1-0.6 2.3 3.2 7.7 13.1 18.3 36 24.4 56.6 15.1 6.6-2.9 13.6-9.6 16.9-16.1 4.9-9.5 5.2-13 5.2-62.2v-46.1h-11-11z"/>
		<path id="Layer" class="s1" d="m624.2 96.7l0.3 55.8h11.5 11.5l0.3-55.8 0.2-55.7h-12-12z"/>
		<path id="Layer" class="s1" d="m363.7 49.6c-0.4 0.4-0.7 5.1-0.7 10.5v9.8l-4.7 0.3-4.8 0.3v10 10l4.7 0.3 4.6 0.3 0.4 23.7c0.4 26.4 0.9 28.4 7.1 33.9 6.5 5.7 21.1 6.9 31 2.5l4.7-2.1v-9.5-9.5l-3.5 1.5c-4.9 2-11.8 1.8-13.8-0.4-1.5-1.6-1.7-4.6-1.7-21v-19.2h9.5 9.5v-10.5-10.5h-9.5-9.4l-0.3-10.3-0.3-10.2-11.1-0.3c-6-0.1-11.3 0.1-11.7 0.4z"/>
		<path id="Layer" fill-rule="evenodd" class="s1" d="m478.1 72c16.7 6.5 26.9 21.5 26.9 39.5 0 17.9-10.4 33.2-26.7 39.6-7.1 2.7-22 3.7-29 2-21.4-5.4-35.7-26.5-32.3-47.5 2.7-16.9 14.9-30.3 31.9-35.2 6.9-2 22.2-1.2 29.2 1.6zm-20.6 17.4c-0.5 0.3-2.2 0.7-3.7 1-3.9 0.9-9.8 6.4-11.9 11.1-2.5 5.3-2.4 14.7 0 20 7.3 15.9 29.4 16.7 37.4 1.5 2.5-4.8 2.8-6.4 2.5-12.1-0.4-8.3-4.4-15.3-10.5-18.7-3.8-2.1-11.5-3.6-13.8-2.8z"/>
		<path id="Layer" fill-rule="evenodd" class="s1" d="m585.2 74.7c2.6 1.4 7.1 5 9.9 8 20 21.2 13.1 54.9-13.8 67.6-5.9 2.7-8.1 3.2-17 3.5-8.4 0.4-11.2 0.1-16.6-1.7-17.7-5.9-28.6-19.8-29.5-37.7-1.1-21 11.5-38.3 32.1-43.9 11-2.9 24.8-1.3 34.9 4.2zm-29.2 15.5c-9.2 2.6-14.4 10.3-14.5 21.3 0 8.6 2.8 14.4 9.3 19 3.9 2.7 5.2 3 11.7 3 6.5 0 7.8-0.3 11.6-3 6-4.3 8.9-10.2 8.9-18.3 0-11.2-6-19.7-15.6-22.1-5-1.3-6.7-1.3-11.4 0.1z"/>
		<path id="Layer" class="s1" d="m687.1 70.6c-12.6 3.4-20 12.2-20.1 24 0 13.5 6 19.7 25.3 25.9 14.3 4.7 15.9 5.7 15.5 9.8-0.4 4.3-3.7 5.9-10.8 5.3-7.6-0.7-11.6-2-18.3-6l-5.7-3.5-5.2 7.6-5.1 7.6 2.4 2c10.4 8.4 29.6 12.7 43.8 9.6 14.8-3.1 23.7-17.3 19.7-31.2-2.6-8.9-10-14.4-27.3-20.1-12.4-4.1-16-7.9-11.4-12 3.3-3 11.8-2.3 21.2 1.7l7.9 3.5 4-7.3c2.2-4 4-7.7 4-8.4 0-1.7-9.4-6-17.8-8.2-8.8-2.2-14.6-2.3-22.1-0.3z"/>
	</g>
</svg>