<svg version="1.2" xmlns="http://www.w3.org/2000/svg" viewBox="0 0 2416 1520" width="2416" height="1520">
	<title>Scule-BJC-colored-_3_-svg</title>
	<style>
		.s0 { fill: #000000 } 
	</style>
	<g id="Layer">
		<path id="Layer" fill-rule="evenodd" class="s0" d="m1208.8 1.5c0.8 0.3 272.4 170.9 603.7 379.3 453.3 285 602.1 379 601.2 379.8-0.7 0.6-272.2 171.5-603.4 379.8l-602.2 378.6-602.8-379.1c-331.5-208.4-603.1-379.3-603.4-379.7-0.4-0.4 270.7-171.4 602.5-379.9 331.7-208.6 603.7-379.1 604.4-378.8zm-0.6 14.8c-1.4-0.2-1172.2 735.4-1174.9 738.1-0.5 0.4 9.8 0.6 22.7 0.4l23.5-0.4 563.5-354.4c309.9-195 563.7-354.4 564-354.3 0.3 0.1 253.6 159.3 563 353.9 449.6 282.7 563.4 353.9 567.1 354.6 2.5 0.5 14 0.7 25.5 0.6l20.9-0.3-586.8-369c-322.7-203-587.5-369.1-588.5-369.2zm0.3 45.1c-1.8-1.1-45.9 26.5-418.8 261l-416.7 262.1 417.1 0.3c229.4 0.1 604.6 0.1 833.7 0l416.6-0.3-414.9-260.9c-228.3-143.5-415.9-261.5-417-262.2zm841.3 528.9c-0.5-0.2-0.8 0.3-0.8 1.1 0 1.5-80.3 1.6-844.8 1.6h-844.8l-128.9 81.1c-71 44.6-130.2 81.8-131.7 82.8l-2.7 1.7 80.6 50.7 80.7 50.7h1408.6v8l-697.5 0.2-697.6 0.3 467.6 294c257.2 161.7 468.1 293.9 468.8 293.7 0.6-0.2 211.3-132.5 468.2-294l467-293.7-148.8-0.3-148.7-0.2v-8h153.9c84.7 0 154.1 0.4 154.3 0.8 0.3 0.9 163-101.1 162.9-102.2 0-0.4-59.8-38.3-132.8-84.3-73-45.9-133.1-83.7-133.5-84zm-1969.3 173.2l-17-0.1c-9.3 0-20.4 0.2-24.5 0.5l-7.5 0.6 587.5 369.4c323.1 203.2 588.2 369.5 589 369.5 0.9 0 265.9-166.2 589.1-369.4l587.5-369.5-9-0.6c-5-0.4-16.4-0.7-25.4-0.8l-16.3-0.1-1127.2 708.8-3.6-2.2c-2-1.3-255.4-160.7-563.1-354.2z"/>
		<path id="Layer" fill-rule="evenodd" class="s0" d="m1213.8 142.5c1.6 0.6 647.3 399.4 648.6 400.6 0.6 0.5-291.9 0.9-652.4 0.9-406.4 0-653-0.4-652.4-0.9 0.5-0.6 148.1-91 327.9-201 179.9-110.1 327.6-199.9 328.3-199.6zm0 15c-0.7-0.3-15.1 7.9-32 18.2l-30.7 18.8 31 0.3c17.1 0.1 44.8 0.1 61.6 0l30.6-0.3-29.6-18.3c-16.3-10-30.2-18.4-30.9-18.7zm75.8 46.5h-154.1l-60.8 37.3-60.9 37.2 99.1 0.3c54.5 0.1 143.7 0.1 198.2 0l99.1-0.3-60.3-37.3zm128.9 80c-0.3 0-0.5 0.7-0.5 1.5 0 1.3-23.9 1.5-209 1.5h-209l-60.9 37.2-60.9 37.3 166.4 0.3c91.5 0.1 241.4 0.1 333.1 0l166.8-0.3-62.7-38.8c-34.5-21.3-63-38.7-63.3-38.7zm139.7 86l-347.4 0.1-347.3 0.1-60.5 37.2-60.5 37.1 234.3 0.3c128.8 0.1 339.5 0.1 468.1 0l233.9-0.3-60.3-37.3zm134.7 83.3c-3.1-1.9-3.8-2.1-4.3-0.8-0.5 1.3-55.4 1.5-479 1.5-335.7 0-478.5-0.3-478.8-1.1-0.2-0.5-29.2 16.7-64.6 38.3l-64.2 39.3 304 0.3c167.2 0.1 440.8 0.1 608 0l303.9-0.3-60.6-37.5c-33.4-20.6-62.3-38.5-64.4-39.7z"/>
		<path id="Layer" class="s0" d="m585.3 627.4c-43.3 8.3-75.4 41-81.2 83-1.5 10.9-1.4 25.8 0.4 36.2 7 40.7 33.3 68 74.4 77.5 12.5 2.9 39.3 3.6 52.5 1.5 34.2-5.6 57.3-23.5 70.7-54.7 2.1-4.7 3.9-9.3 4.1-10.2 0.2-1.3-4.1-3.8-18.6-10.7-10.4-4.9-19.2-9-19.6-9-0.3 0-1.2 2.3-1.9 5.1-4.2 16.2-17.3 32.8-31.2 39.3-26.2 12.4-56.1 1.3-68.9-25.5-5.8-12.3-7.4-19.3-7.3-33.4 0.1-10 0.5-13.5 2.8-21 7.7-26.1 26.3-42.3 50.4-44.2 21.4-1.6 38.5 8.4 49 28.6l4.2 8.1h17 16.9v-34.5-34.5h-17-17v7c0 3.8-0.2 7-0.5 7-0.2 0-3.2-1.8-6.5-3.9-6.7-4.4-16.1-8.2-26-10.7-9-2.2-37.1-2.8-46.7-1z"/>
		<path id="Layer" class="s0" d="m1947.3 627.4c-43.3 8.3-75.4 41-81.2 83-1.5 10.9-1.4 25.8 0.4 36.2 7 40.7 33.3 68 74.4 77.5 12.5 2.9 39.3 3.6 52.5 1.5 34.2-5.6 57.3-23.5 70.7-54.7 2.1-4.7 3.9-9.3 4.1-10.2 0.2-1.3-4.1-3.8-18.6-10.7-10.4-4.9-19.2-9-19.6-9-0.3 0-1.2 2.3-1.9 5.1-4.2 16.2-17.3 32.8-31.2 39.3-26.2 12.4-56.1 1.3-68.9-25.5-5.8-12.3-7.4-19.3-7.3-33.4 0.1-10 0.5-13.5 2.8-21 7.7-26.1 26.3-42.3 50.4-44.2 21.4-1.6 38.5 8.4 49 28.6l4.2 8.1h17 16.9v-34.5-34.5h-17-17v7c0 3.8-0.2 7-0.5 7-0.2 0-3.2-1.8-6.5-3.9-6.7-4.4-16.1-8.2-26-10.7-9-2.2-37.1-2.8-46.7-1z"/>
		<path id="Layer" class="s0" d="m357.3 628.5c-18.6 5.2-33 20.6-37.3 39.7-1.7 7.5-0.8 23.8 1.5 29.8 7 17.3 19.7 28.2 50.9 43.4 9.4 4.6 19.1 10 21.5 11.9 12.1 9.6 14.4 22.9 5.5 32.7-4.8 5.3-10.7 7.4-18.9 6.8-6.8-0.6-13-3.4-17.2-8-3.3-3.5-7.3-13-8.5-20.3l-1.1-6.5h-16.8-16.9v33.5 33.5h17 17v-7.8-7.8l5 4.7c5.4 5.3 12.9 9.5 20.5 11.5 6.6 1.8 22.5 1.7 30.3-0.1 19.1-4.5 33.6-18.9 38.8-38.5 2.1-7.9 2.3-25.2 0.5-33-4.5-18.8-19-33.9-44.3-45.9-5.6-2.7-16-7.6-22.9-10.9-7.7-3.6-13.9-7.3-16.2-9.6-12.3-12.2-1.7-29.2 16.9-27.3 12.1 1.2 21.5 10.6 23.9 23.9l0.7 3.8h16.9 16.9v-29.5-29.5h-17-17v7.1 7.2l-5-4.7c-2.8-2.6-8.1-6.1-11.7-7.8-5.9-2.8-7.9-3.2-17.2-3.5-7.2-0.2-12.3 0.2-15.8 1.2z"/>
		<path id="Layer" class="s0" d="m746 645.5v16.5h11.5 11.5v49.2c0 27.1 0.5 53.6 1 58.8 3.3 31.5 15.1 47.2 40.8 54.2 10.6 2.9 45.9 3.3 56.6 0.5 20.3-5.2 31.7-16 37.7-35.7 2.3-7.3 2.3-8.8 2.9-67l0.5-59.5 11.8-0.3 11.7-0.3v-16.4-16.5h-39.5-39.5v16.5 16.5h9.5 9.6l-0.3 54.7c-0.4 60.7-0.5 61.4-7 68.9-8.5 9.7-25.7 11-34.9 2.7-8.7-7.9-10.1-19.6-9.7-83.8l0.3-42 9.8-0.3 9.7-0.3v-16.4-16.5h-47-47z"/>
		<path id="Layer" class="s0" d="m968 645.5v16.5h14 14v65 65h-14-14v16.5 16.5h88 88v-47-47h-19.5-19.5v30.5 30.5h-28.5-28.5v-65-65h14 14v-16.5-16.5h-54-54z"/>
		<path id="Layer" class="s0" d="m1183 645.5v16.5h12 12v65 65h-12-12v16.5 16.5h86.5 86.5v-31-31h-19-19v14.5 14.5l-29.7-0.2-29.8-0.3-0.3-25.8-0.2-25.7h24.5 24.5v-16.5-16.5h-24.5-24.5l0.2-22.3 0.3-22.2 29.8-0.3 29.7-0.2v14.5 14.5h19 19v-31-31h-86.5-86.5z"/>
		<path id="Layer" fill-rule="evenodd" class="s0" d="m1501 629h53.8c65.8 0 74.5 0.9 91.7 9.8 16 8.3 24.5 22.6 24.5 41.2 0 16.5-6.3 28.4-19.5 37l-6.6 4.3 6.8 3.6c13.3 7 20.7 15.2 24.4 27 2.3 7.5 2.6 23.9 0.5 31.6-6.1 22.9-26 36.2-60.6 40.5-4.9 0.6-30.8 1-61.7 1h-53.3v-32.9l12.3-0.3 12.2-0.3v-129l-12.2-0.3-12.3-0.3zm87.3 33.5l-11.3-0.7v45.5l12.9-0.5c11.8-0.4 13.4-0.7 18.8-3.4 7.5-3.8 10.7-9.4 10.7-19.3 0.1-11.2-4.7-17.1-15.9-19.9-2.2-0.6-9.1-1.4-15.2-1.7zm2 77.8l-13.3-0.6v52.6l13.8-0.6c15-0.7 21.5-2.2 26.8-6.2 5.6-4.3 7.8-9.7 7.8-19 0.1-13.5-4.8-20.4-16.8-24.1-2.8-0.8-11-1.8-18.3-2.1z"/>
		<path id="Layer" class="s0" d="m1719 645.5v16.5h14.5 14.6l-0.3 85.7c-0.3 94.5 0 89.4-6.5 95.4-5.2 4.9-14.3 6-26.5 3.3l-2.8-0.6v18 18l6.3 1.2c11.5 2.2 31.5 2.5 40.3 0.5 24.7-5.5 37.4-21.3 40.4-50.5 0.6-6.2 1-41.7 1-90.6v-80.4h13 13v-16.5-16.5h-53.5-53.5z"/>
		<path id="Layer" fill-rule="evenodd" class="s0" d="m1122.3 896c5.7 6.3 6.2 14.9 1 21-3.6 4.3-7.4 6-13.6 6-6.9 0-11.4-2.8-14.6-9.3-3.5-7-2.4-12.8 3.4-18.4 2.4-2.3 5.4-4.3 6.7-4.6 7.3-1.4 12.6 0.2 17.1 5.3zm-21.6 3c-5.6 6.7-2.5 17.2 5.9 20 6.4 2.1 13.5-2.1 15.5-9.2 1.4-5.4-1.5-11.8-6.4-14.1-6.1-2.9-10.7-1.9-15 3.3z"/>
		<path id="Layer" fill-rule="evenodd" class="s0" d="m1066 891h6.3c7 0 9.8 1.4 12.3 6.2 3.3 6.5-1.5 14.4-9.5 15.5l-4.1 0.6v4.8c0 4.6-0.2 4.9-2.5 4.9h-2.5zm8.2 4h-3.2v7c0 6.4 0.2 7 2.1 7 2.3 0 6-1.8 7.1-3.4 1.4-2.1 0.8-7.3-1-8.9-1-1-3.3-1.7-5-1.7z"/>
		<path id="Layer" class="s0" d="m1133.3 892.7c0.2 1 2.2 8.2 4.2 16 3.4 12.6 4.1 14.3 5.9 14.3 1.7 0 2.7-1.6 5.2-8.2l3-8.1 3 7.9c2.4 6.3 3.4 8 5.2 8.2 1.2 0.2 2.2 0.1 2.2-0.2 0-0.3 1.8-7.2 4-15.3 2.2-8.1 4-15.2 4-15.6 0-0.5-1-0.7-2.2-0.5-1.9 0.3-2.6 1.9-5.1 11.6-1.7 6.2-3.3 11-3.5 10.7-0.3-0.3-1.7-3.6-3.2-7.3-3.4-9-5.4-9.1-8.7-0.2-1.3 3.6-2.8 6.8-3.2 7.2-0.4 0.5-2-4.4-3.6-10.7-2.7-10.6-3.1-11.5-5.3-11.5-1.8 0-2.3 0.4-1.9 1.7z"/>
		<path id="Layer" class="s0" d="m1176 907v16h9c8.3 0 9-0.1 9-2 0-1.8-0.7-2-6.5-2h-6.5v-5-5h6.5c5.8 0 6.5-0.2 6.5-2 0-1.8-0.7-2-6.5-2h-6.5v-5.5-5.5h6.5c5.1 0 6.5-0.3 6.5-1.5 0-1.2-1.7-1.5-9-1.5h-9z"/>
		<path id="Layer" fill-rule="evenodd" class="s0" d="m1204 891h6.3c7 0 9.8 1.4 12.3 6.2 2.1 4 1.2 8.4-2.6 12.3l-3 3.1 3.5 5.2 3.6 5.2h-2.6c-1.9 0-3.3-1.2-5.7-5-4.4-6.7-6.8-6.7-6.8 0 0 4.7-0.2 5-2.5 5h-2.5zm8.2 4h-3.2v7c0 6.4 0.2 7 2.1 7 2.3 0 6-1.8 7.1-3.4 1.4-2.1 0.8-7.3-1-8.9-1-1-3.3-1.7-5-1.7z"/>
		<path id="Layer" class="s0" d="m1231 907v16h9c8.3 0 9-0.1 9-2 0-1.8-0.7-2-6.5-2h-6.5v-5-5h6.5c5.8 0 6.5-0.2 6.5-2 0-1.8-0.7-2-6.5-2h-6.5v-5.5-5.5h6.5c5.1 0 6.5-0.3 6.5-1.5 0-1.2-1.7-1.5-9-1.5h-9z"/>
		<path id="Layer" fill-rule="evenodd" class="s0" d="m1259 891h6.5c7.6 0 11.3 1.6 14.9 6.3 3.8 4.9 4.3 11.1 1.4 16.6-3.5 6.7-6.5 8.5-15.4 8.9l-7.4 0.4zm9 4h-4v24.3l4.6-0.6c7.1-0.8 9.9-4.1 9.9-11.8 0-5.6-0.3-6.3-3.3-9-2.4-2.2-4.2-2.9-7.2-2.9z"/>
		<path id="Layer" fill-rule="evenodd" class="s0" d="m1307 891h7c5.8 0 7.4 0.4 9.1 2.1 1.8 1.8 2 2.9 1.6 6.4-0.5 3.4-0.2 4.6 1.3 6 2.7 2.5 3.4 6.7 1.6 10.8-2 4.8-6 6.7-14.1 6.7h-6.5zm7.8 3c-2.5 0-2.8 0.3-2.8 3.6v3.5l4.2-0.3c3.3-0.2 4.4-0.7 4.7-2.2 0.2-1.1-0.5-2.6-1.5-3.3-1-0.7-3-1.3-4.6-1.3zm1 11h-3.8v14h4.4c3.5 0 4.8-0.5 6-2.2 2.3-3.2 2-7.4-0.6-9.8-1.4-1.3-3.5-2-6-2z"/>
		<path id="Layer" class="s0" d="m1335 891.4c0 0.2 2.5 4.6 5.5 9.7 5 8.7 5.5 9.9 5.5 15.6 0 5.6 0.2 6.3 2 6.3 1.8 0 2-0.7 2-6.6 0-6.6 1.7-10.6 9.8-23.2 1.3-2.1 1.3-2.2-1.1-2.2-2.2 0-3.3 1.2-6.8 7.1l-4.1 7.1-4.2-7.1c-3.1-5.4-4.6-7.1-6.3-7.1-1.3 0-2.3 0.2-2.3 0.4z"/>
		<path id="Layer" fill-rule="evenodd" class="s0" d="m1234.3 941c5.7 6.3 6.2 14.9 1 21-3.6 4.3-7.4 6-13.6 6-6.9 0-11.4-2.8-14.6-9.3-3.5-7-2.4-12.8 3.4-18.4 2.4-2.3 5.4-4.3 6.7-4.6 7.3-1.4 12.6 0.2 17.1 5.3zm-21.6 3c-5.6 6.7-2.5 17.2 5.9 20 6.4 2.1 13.5-2.1 15.5-9.2 1.4-5.4-1.5-11.8-6.4-14.1-6.1-2.9-10.7-1.9-15 3.3z"/>
		<path id="Layer" fill-rule="evenodd" class="s0" d="m1314.3 941c5.7 6.3 6.2 14.9 1 21-3.6 4.3-7.4 6-13.6 6-6.9 0-11.4-2.8-14.6-9.3-3.5-7-2.4-12.8 3.4-18.4 2.4-2.3 5.4-4.3 6.7-4.6 7.3-1.4 12.6 0.2 17.1 5.3zm-21.6 3c-5.6 6.7-2.5 17.2 5.9 20 6.4 2.1 13.5-2.1 15.5-9.2 1.4-5.4-1.5-11.8-6.4-14.1-6.1-2.9-10.7-1.9-15 3.3z"/>
		<path id="Layer" fill-rule="evenodd" class="s0" d="m1355.3 941c5.7 6.3 6.2 14.9 1 21-3.6 4.3-7.4 6-13.6 6-6.9 0-11.4-2.8-14.6-9.3-3.5-7-2.4-12.8 3.4-18.4 2.4-2.3 5.4-4.3 6.7-4.6 7.3-1.4 12.6 0.2 17.1 5.3zm-21.6 3c-5.6 6.7-2.5 17.2 5.9 20 6.4 2.1 13.5-2.1 15.5-9.2 1.4-5.4-1.5-11.8-6.4-14.1-6.1-2.9-10.7-1.9-15 3.3z"/>
		<path id="Layer" class="s0" d="m1396.7 937c-3.7 2.9-3.7 8.1-0.1 11.5 1.5 1.4 3.2 2.5 3.9 2.5 0.7 0 2.4 0.9 3.9 2.1 1.9 1.5 2.6 3 2.6 5.4 0 6.9-8.6 8.4-11 2-1-2.7-1.1-2.8-3.4-1.9-2.4 0.9-1.9 3.2 1.3 6.5 2.4 2.3 3.8 2.9 7.3 2.9 5.4 0 8.3-1.9 9.8-6.5 1.7-5.2-1-10.1-7.5-13.4-3.9-2.1-5-3.2-5-5 0-3.3 3.2-5.2 4.9-2.9 1.4 1.9 4.1 2.4 5 0.9 1-1.5-2.7-5.1-5.9-5.7-2.2-0.4-3.8 0-5.8 1.6z"/>
		<path id="Layer" fill-rule="evenodd" class="s0" d="m1015.5 936c1.8 0 2.9 2.3 7.4 14.7 3 8.2 5.6 15.4 5.8 16 0.3 0.8-0.4 1.3-1.9 1.3-2.1 0-2.8-0.9-4.7-6.5l-2.3-6.5h-8.6l-2.4 6.5c-1.9 5.5-2.6 6.5-4.6 6.5-1.5 0-2.2-0.5-2-1.3 0.3-0.6 2.9-7.8 5.9-16 4.5-12.4 5.7-14.7 7.4-14.7zm-1.4 11c-1.4 4.2-1.5 4 1.5 4 2.2 0 2.4-0.3 1.8-2.3-1.4-4.7-2.1-5.1-3.3-1.7z"/>
		<path id="Layer" class="s0" d="m1035 952v16h2.5c2.4 0 2.4 0 2.7-11.7l0.3-11.7 8.3 11.7c6.7 9.6 8.7 11.7 10.7 11.7h2.5v-16c0-15.3-0.1-16-2-16-1.9 0-2 0.7-2 12.1 0 7.2-0.4 11.8-0.9 11.4-0.5-0.3-4.6-5.7-9.1-12-6.6-9.3-8.6-11.5-10.6-11.5h-2.4z"/>
		<path id="Layer" fill-rule="evenodd" class="s0" d="m1082.5 936c1.8 0 2.9 2.3 7.4 14.7 3 8.2 5.6 15.4 5.8 16 0.3 0.8-0.4 1.3-1.9 1.3-2.1 0-2.8-0.9-4.7-6.5l-2.3-6.5h-8.6l-2.4 6.5c-1.9 5.5-2.6 6.5-4.6 6.5-1.5 0-2.2-0.5-2-1.3 0.3-0.6 2.9-7.8 5.9-16 4.5-12.4 5.7-14.7 7.4-14.7zm-1.4 11c-1.4 4.2-1.5 4 1.5 4 2.2 0 2.4-0.3 1.8-2.3-1.4-4.7-2.1-5.1-3.3-1.7z"/>
		<path id="Layer" fill-rule="evenodd" class="s0" d="m1130.5 936c1.8 0 2.9 2.3 7.4 14.7 3 8.2 5.6 15.4 5.8 16 0.3 0.8-0.4 1.3-1.9 1.3-2.1 0-2.8-0.9-4.7-6.5l-2.3-6.5h-8.6l-2.4 6.5c-1.9 5.5-2.6 6.5-4.6 6.5-1.5 0-2.2-0.5-2-1.3 0.3-0.6 2.9-7.8 5.9-16 4.5-12.4 5.7-14.7 7.4-14.7zm-1.4 11c-1.4 4.2-1.5 4 1.5 4 2.2 0 2.4-0.3 1.8-2.3-1.4-4.7-2.1-5.1-3.3-1.7z"/>
		<path id="Layer" class="s0" d="m1150 947c0 16.1 2.7 21 11.7 21 3.3 0 5-0.7 7.5-2.9l3.3-2.9 0.3-13.1 0.4-13.1h-2.6-2.6v12.4c0 12.3 0 12.5-2.7 14.5-2.8 2.3-5.4 2.1-8.5-0.7-1.5-1.3-1.8-3.3-1.8-13.9v-12.3h-2.5-2.5z"/>
		<path id="Layer" class="s0" d="m1181 937.5c0 1 1.1 1.5 3.5 1.5h3.5v14.5 14.5h2.5 2.5v-14.5-14.5h3.5c2.4 0 3.5-0.5 3.5-1.5 0-1.2-1.7-1.5-9.5-1.5-7.8 0-9.5 0.3-9.5 1.5z"/>
		<path id="Layer" class="s0" d="m1262 937.5c0 1 1.1 1.5 3.5 1.5h3.5v14.5 14.5h2.5 2.5v-14.5-14.5h3.5c2.4 0 3.5-0.5 3.5-1.5 0-1.2-1.7-1.5-9.5-1.5-7.8 0-9.5 0.3-9.5 1.5z"/>
		<path id="Layer" class="s0" d="m1368 952v16h8c7.3 0 8-0.2 8-2 0-1.8-0.7-2-5.5-2h-5.5v-14-14h-2.5-2.5z"/>
		<path id="Layer" fill-rule="evenodd" class="s0" d="m1210 986c359.2 0 653 0.3 653 0.7-0.1 0.5-146.3 91.1-325 201.5l-325 200.7-328-200.7c-180.4-110.4-328-201-328-201.4 0-0.5 293.9-0.8 653-0.8zm0 13c-347.9 0-608 0.4-607.4 0.9 0.5 0.5 29 18 63.3 39l62.4 38.1h480.3c330.7 0 480.3 0.3 480.6 1 0.2 0.8 126-75.9 128.5-78.4 0.4-0.3-273.1-0.6-607.7-0.6zm0.5 86c-257.9 0-468.6 0.2-468.4 0.4 0.2 0.2 27.7 17.1 61.1 37.5l60.7 37.1h694.7l59.8-37c33-20.3 60.2-37.2 60.4-37.5 0.3-0.3-210.4-0.5-468.3-0.5zm335 83.1l-333.9-0.1c-183.7 0-333.7 0.2-333.4 0.5 0.3 0.3 27.7 17.2 60.9 37.5l60.4 37h209.2c200.6 0 209.2 0.1 209.5 1.8 0.2 1.4 12.1-5.5 59.8-35 32.7-20.3 61.3-37.9 63.5-39.3zm-333.4 83.9c-108.6 0-197.2 0.2-197 0.4 0.2 0.2 27.7 17.1 61.1 37.5l60.7 37.1h151.4l58.6-36.2c32.2-19.8 59.5-36.7 60.6-37.5 1.6-1.1-30.2-1.3-195.4-1.3zm1 83c-34.4 0-62.1 0.4-61.5 0.8 1.9 1.8 60.5 37.2 61.4 37.2 0.5 0 13.3-7.7 28.5-17 15.2-9.4 29-18 30.8-19 3.2-2 3.1-2-59.2-2z"/>
	</g>
</svg>